<svg width="26" height="26" viewBox="0 0 26 26" fill="none" xmlns="http://www.w3.org/2000/svg">
<g clip-path="url(#clip0_2363_930)">
<path d="M21.6635 4.91706C20.0478 4.16111 18.3202 3.61172 16.5141 3.29889C16.2923 3.69992 16.0331 4.23933 15.8544 4.66842C13.9345 4.37968 12.0321 4.37968 10.1475 4.66842C9.96883 4.23933 9.7038 3.69992 9.48 3.29889C7.6719 3.61172 5.94233 4.16313 4.32662 4.92106C1.06773 9.84567 0.184296 14.648 0.626013 19.3821C2.78748 20.9962 4.88221 21.9767 6.94158 22.6184C7.45005 21.9186 7.90354 21.1747 8.2942 20.3907C7.55016 20.1079 6.83753 19.7591 6.16418 19.354C6.34281 19.2217 6.51755 19.0833 6.68637 18.9409C10.7933 20.8619 15.2557 20.8619 19.3136 18.9409C19.4844 19.0833 19.6591 19.2217 19.8358 19.354C19.1604 19.761 18.4459 20.1099 17.7018 20.3927C18.0925 21.1747 18.544 21.9206 19.0544 22.6204C21.1158 21.9787 23.2125 20.9982 25.3739 19.3821C25.8922 13.894 24.4886 9.13585 21.6635 4.91706ZM8.85372 16.4706C7.62085 16.4706 6.60979 15.3197 6.60979 13.9181C6.60979 12.5165 7.59926 11.3636 8.85372 11.3636C10.1082 11.3636 11.1192 12.5145 11.0977 13.9181C11.0996 15.3197 10.1082 16.4706 8.85372 16.4706ZM17.1462 16.4706C15.9134 16.4706 14.9023 15.3197 14.9023 13.9181C14.9023 12.5165 15.8917 11.3636 17.1462 11.3636C18.4007 11.3636 19.4117 12.5145 19.3902 13.9181C19.3902 15.3197 18.4007 16.4706 17.1462 16.4706Z" fill="#5F6874"/>
</g>
<defs>
<clipPath id="clip0_2363_930">
<rect width="24.96" height="24.96" fill="white" transform="translate(0.52002 0.520142)"/>
</clipPath>
</defs>
</svg>
