<svg width="26" height="26" viewBox="0 0 26 26" fill="none" xmlns="http://www.w3.org/2000/svg">
<path d="M5.34029 4.07578C4.49987 4.13968 3.50663 4.29943 3.12462 4.39528C2.26891 4.65088 1.27568 5.65732 1.03119 6.53595C0.267162 9.23574 0.389406 18.3575 1.19927 20.0029C1.50488 20.61 2.19251 21.249 2.83429 21.5366C3.15518 21.6803 4.14841 21.8561 5.04996 21.9519C7.18924 22.1596 18.726 22.1596 20.9264 21.9519C24.8688 21.5685 25.48 20.3704 25.48 13.0059C25.48 7.86188 25.1591 6.12059 24.0131 5.06624C23.3102 4.41126 22.7754 4.26748 20.3305 4.05981C18.069 3.8681 7.61709 3.88408 5.34029 4.07578ZM13.1334 10.6415C14.31 11.3444 15.6699 12.1752 16.1589 12.4787L17.0452 13.0378L14.5544 14.5554C13.1792 15.3861 11.697 16.2808 11.2691 16.5364L10.4593 17.0156V13.0857C10.4593 9.41146 10.4746 9.13988 10.719 9.23574C10.8718 9.29964 11.9568 9.92266 13.1334 10.6415Z" fill="#5F6874"/>
</svg>
