<svg width="35" height="34" viewBox="0 0 35 34" fill="none" xmlns="http://www.w3.org/2000/svg">
<path d="M0.498047 14.8983C0.498047 8.05239 0.498047 4.62946 2.64418 2.50272C4.79031 0.375977 8.24446 0.375977 15.1528 0.375977H19.3949C26.3032 0.375977 29.7573 0.375977 31.9035 2.50272C34.0496 4.62946 34.0496 8.05239 34.0496 14.8983V19.1021C34.0496 25.948 34.0496 29.3709 31.9035 31.4976C29.7573 33.6244 26.3032 33.6244 19.3949 33.6244H15.1528C8.24446 33.6244 4.79031 33.6244 2.64418 31.4976C0.498047 29.3709 0.498047 25.948 0.498047 19.1021V14.8983Z" fill="#F1F5F9"/>
<path d="M7.08099 7.31766C7.00841 6.50328 7.8608 5.89463 8.67469 6.17966L14.3811 8.17815C15.2566 8.48474 15.4282 9.57971 14.6841 10.1111L9.48652 13.8224C8.74239 14.3538 7.66799 13.9035 7.58992 13.0275L7.08099 7.31766Z" fill="#F4404C"/>
<path d="M27.0919 7.31766C27.1645 6.50329 26.3121 5.89463 25.4982 6.17967L19.7918 8.17815C18.9163 8.48475 18.7447 9.57971 19.4888 10.1111L24.467 13.0275C25.2111 13.5589 26.5049 13.9035 26.583 13.0275L27.0919 7.31766Z" fill="#F4404C"/>
<path d="M21.4483 14.028C21.0603 13.361 20.4986 12.856 19.7633 12.513C19.0484 12.1509 18.2008 11.9698 17.2203 11.9698C15.5251 11.9698 14.1668 12.4939 13.1455 13.542C12.1243 14.5711 11.6137 15.9527 11.6137 17.6869C11.6137 19.5354 12.1447 20.9837 13.2068 22.0318C14.2893 23.0609 15.7702 23.5754 17.6493 23.5754C18.9361 23.5754 20.0186 23.2705 20.8969 22.6607C21.7956 22.0509 22.4492 21.1743 22.8577 20.0309C22.8577 20.0309 21.2885 18.429 17.6493 20.2738C16.5497 20.8313 14.9702 19.5306 16.2093 18.4158C19.0422 15.8671 26.027 15.2571 27.6065 16.4291C29.0876 17.5281 27.6065 20.9742 27.6065 20.9742C27.2184 22.1938 26.5546 23.3277 25.6151 24.3758C24.6959 25.424 23.5215 26.272 22.0917 26.9199C20.662 27.5679 19.0484 27.8918 17.251 27.8918C15.1268 27.8918 13.2272 27.463 11.5524 26.6055C9.89795 25.7289 8.60096 24.5188 7.66141 22.9752C6.74228 21.4316 6.28271 19.6688 6.28271 17.6869C6.28271 15.705 6.74228 13.9422 7.66141 12.3986C8.60096 10.836 9.89795 9.62585 11.5524 8.76829C13.2068 7.89168 15.0961 7.45337 17.2203 7.45337C19.7939 7.45337 21.959 8.0346 23.7155 9.19707C24.953 10.0066 25.8751 10.9155 26.5303 12.1699C26.9962 13.0619 26.2443 14.028 25.2307 14.028H21.4483Z" fill="#F4404C"/>
</svg>
