<svg width="26" height="26" viewBox="0 0 26 26" fill="none" xmlns="http://www.w3.org/2000/svg">
<path d="M7.80688 1.98816C5.73405 2.22828 4.22525 3.01927 3.22409 4.38937C2.06782 5.97134 1.8281 7.75106 1.92681 14.1354C1.99731 18.839 2.06782 19.4746 2.75876 20.9012C3.13948 21.6922 4.35216 22.9069 5.14181 23.2883C6.70701 24.0369 7.18644 24.0934 13.0242 24.0934C17.7339 24.0934 18.5659 24.0651 19.3273 23.8533C21.8091 23.1612 23.1627 21.8052 23.8537 19.3192C24.0652 18.5565 24.0934 17.7231 24.0934 13.0055C24.0934 7.15782 24.037 6.67758 23.2897 5.10973C22.8948 4.2905 21.6963 3.10402 20.8502 2.6944C19.4683 2.01641 18.8902 1.95992 13.7293 1.91754C11.0501 1.88929 8.38502 1.91754 7.80688 1.98816ZM18.6928 4.121C20.4977 4.50237 21.5129 5.51935 21.8937 7.32732C22.1052 8.3443 22.1052 17.6666 21.8937 18.6836C21.5129 20.4916 20.4977 21.5086 18.6928 21.8899C17.6775 22.1018 8.37091 22.1018 7.35565 21.8899C5.55074 21.5086 4.53547 20.4916 4.15475 18.6836C3.94323 17.6666 3.94323 8.3443 4.15475 7.32732C4.52137 5.57585 5.46613 4.58712 7.17234 4.16337C8.1171 3.93738 17.6211 3.895 18.6928 4.121Z" fill="#5F6874"/>
<path d="M18.4105 5.87248C18.1144 6.01373 17.8747 6.25385 17.7337 6.57872C17.4517 7.27083 17.7478 7.99119 18.4528 8.27369C18.89 8.47143 19.0028 8.47143 19.4399 8.27369C20.3142 7.92057 20.5539 6.71997 19.877 6.1126C19.454 5.73123 18.9464 5.64648 18.4105 5.87248Z" fill="#5F6874"/>
<path d="M12.0369 7.36968C7.53876 8.13241 5.76205 13.7964 8.99115 17.0451C12.2767 20.3221 17.9311 18.4859 18.6503 13.8812C19.2566 10.0251 15.9006 6.71994 12.0369 7.36968ZM14.4341 9.62963C17.3953 10.9715 17.4235 14.9547 14.5046 16.3389C12.1639 17.4547 9.37188 15.6327 9.35778 13.0054C9.35778 10.4347 12.1357 8.5844 14.4341 9.62963Z" fill="#5F6874"/>
</svg>
