<svg width="13" height="14" viewBox="0 0 13 14" fill="none" xmlns="http://www.w3.org/2000/svg">
<path d="M7.18684 13.6883C4.85994 13.6883 2.7529 13.0364 0.865723 11.7326L2.65213 9.31822C4.26447 10.3484 5.81268 10.8634 7.29677 10.8634C8.46939 10.8634 9.05569 10.5254 9.05569 9.84939C9.05569 9.76891 9.03737 9.68843 9.00073 9.60795C8.98241 9.52747 8.9366 9.45504 8.86331 9.39066C8.79002 9.32627 8.70758 9.26994 8.61597 9.22165C8.54268 9.15726 8.43274 9.10093 8.28617 9.05264C8.15791 8.98826 8.03882 8.93997 7.92888 8.90778C7.83727 8.85949 7.69986 8.8112 7.51664 8.76291C7.33342 8.69853 7.17768 8.65024 7.04942 8.61805C6.92117 8.58586 6.74711 8.54562 6.52725 8.49733C6.30738 8.43294 6.13332 8.38465 6.00507 8.35246C5.38212 8.1915 4.85077 8.03054 4.41104 7.86958C3.98964 7.69253 3.54074 7.45914 3.06437 7.16941C2.588 6.86358 2.22156 6.48532 1.96505 6.03464C1.72686 5.56785 1.60777 5.02863 1.60777 4.41699C1.60777 3.1454 2.12078 2.14745 3.14682 1.42313C4.17286 0.682709 5.45541 0.3125 6.99446 0.3125C8.97325 0.3125 10.8055 0.811477 12.4911 1.80943L10.8971 4.34455C9.33969 3.53975 8.01134 3.13735 6.91201 3.13735C5.88597 3.13735 5.37296 3.45122 5.37296 4.07897C5.37296 4.51356 6.21577 4.98035 7.9014 5.47932C8.10295 5.54371 8.25868 5.592 8.36862 5.62419C8.86331 5.76905 9.28472 5.90587 9.63284 6.03464C9.98096 6.1634 10.3749 6.34046 10.8146 6.5658C11.2543 6.79115 11.6025 7.03259 11.859 7.29013C12.1338 7.53157 12.3628 7.84544 12.5461 8.23174C12.7293 8.61805 12.8209 9.04459 12.8209 9.51138C12.8209 10.8956 12.2987 11.9419 11.2543 12.6501C10.2283 13.3422 8.87247 13.6883 7.18684 13.6883Z" fill="#F1F5F9"/>
</svg>
