<svg width="13" height="14" viewBox="0 0 13 14" fill="none" xmlns="http://www.w3.org/2000/svg">
<path d="M4.55217 13.6883C3.25227 13.6883 2.27271 13.4549 1.40063 12.7375C0.545002 12.02 0.117188 11.0254 0.117188 9.75352C0.117188 8.36753 0.594365 7.32397 1.54872 6.62282C2.51953 5.92167 3.81943 5.5711 5.44842 5.5711C6.55086 5.5711 7.54841 5.68626 8.60149 6.04498V5.82486C8.60149 4.22689 7.73558 3.49212 5.84332 3.49212C4.70797 3.49212 3.49034 3.72855 2.19044 4.20142L1.25254 1.36422C2.86507 0.663074 4.57633 0.3125 6.38632 0.3125C8.3773 0.3125 10.0392 0.801673 11.0265 1.78002C11.9808 2.72575 12.458 4.11989 12.458 5.96244V13.6883H8.60149V12.1596C7.59777 13.2684 6.21406 13.6883 4.55217 13.6883ZM5.79396 11.2455C6.66604 11.2455 7.37358 11.0335 7.91658 10.6096C8.45957 10.1693 8.60149 9.57976 8.60149 8.91123V8.25084C7.89395 7.92473 7.22549 7.79683 6.33695 7.79683C5.51423 7.79683 4.87251 7.95989 4.41179 8.286C3.96752 8.59581 3.74539 9.05237 3.74539 9.65568C3.74539 10.1449 3.93461 10.5362 4.31306 10.8297C4.69151 11.1069 5.18515 11.2455 5.79396 11.2455Z" fill="#F1F5F9"/>
</svg>
