<svg width="40" height="40" viewBox="0 0 40 40" fill="none" xmlns="http://www.w3.org/2000/svg">
<path d="M1.45235 2.22049C1.32028 0.725123 2.87136 -0.392561 4.35234 0.130878L14.7362 3.80056C16.3293 4.36358 16.6415 6.37425 15.2874 7.34989L5.82961 14.1649C4.47557 15.1406 2.52049 14.3138 2.37845 12.7053L1.45235 2.22049Z" fill="#F1F5F9"/>
<path d="M37.8655 2.22049C37.9976 0.725123 36.4466 -0.392561 34.9655 0.130878L24.5817 3.80063C22.9887 4.36358 22.6765 6.37425 24.0305 7.34996L33.0891 12.7053C34.4431 13.681 36.7974 14.3138 36.9395 12.7053L37.8655 2.22049Z" fill="#F1F5F9"/>
<path d="M27.5963 14.5425C26.8902 13.3177 25.8681 12.3903 24.5301 11.7605C23.2293 11.0956 21.6868 10.7632 19.9028 10.7632C16.818 10.7632 14.3464 11.7255 12.4881 13.6501C10.6297 15.5397 9.70056 18.0768 9.70056 21.2611C9.70056 24.6554 10.6669 27.315 12.5996 29.2396C14.5694 31.1292 17.264 32.074 20.6833 32.074C23.0248 32.074 24.9947 31.5142 26.5928 30.3944C28.2282 29.2746 29.4175 27.6649 30.1608 25.5653C30.1608 25.5653 27.3055 22.6237 20.6833 26.0114C18.6825 27.035 15.8083 24.6467 18.0631 22.5997C23.218 17.9195 35.9279 16.7995 38.8022 18.9516C41.4973 20.9695 38.8022 27.2975 38.8022 27.2975C38.096 29.5371 36.8881 31.6192 35.1784 33.5438C33.5059 35.4684 31.3688 37.0256 28.7671 38.2154C26.1654 39.4051 23.2293 40 19.9586 40C16.0933 40 12.6367 39.2126 9.58905 37.638C6.57852 36.0283 4.21845 33.8062 2.50877 30.9717C0.836281 28.1373 0 24.9004 0 21.2611C0 17.6218 0.836281 14.385 2.50877 11.5505C4.21845 8.68106 6.57852 6.45902 9.58905 4.88429C12.5996 3.2746 16.0375 2.46976 19.9028 2.46976C24.5858 2.46976 28.5255 3.53706 31.7219 5.67165C33.9737 7.15818 35.6516 8.82709 36.8438 11.1305C37.6915 12.7686 36.3234 14.5425 34.479 14.5425H27.5963Z" fill="#F1F5F9"/>
</svg>
