<svg width="21" height="14" viewBox="0 0 21 14" fill="none" xmlns="http://www.w3.org/2000/svg">
<path d="M0.38623 13.6883V0.3125H4.24273V2.41594C5.34518 1.01365 6.40443 0.3125 7.90178 0.3125C9.6624 0.3125 10.9047 1.00549 11.6287 2.39148C12.8299 1.00549 14.2779 0.3125 15.9727 0.3125C17.3877 0.3125 18.482 0.728297 19.2553 1.55989C20.0451 2.37518 20.44 3.56549 20.44 5.13084V13.6883H16.5835V6.42715C16.5835 4.64982 15.9562 3.68779 14.4918 3.68779C13.7842 3.68779 13.3605 3.91607 12.9492 4.37263C12.5543 4.82919 12.3414 5.56295 12.3414 6.42715V13.6883H8.48489V6.35377C8.48489 4.57645 7.87299 3.68779 6.40855 3.68779C5.70101 3.68779 5.14155 3.91607 4.73019 4.37263C4.33529 4.82919 4.24273 5.48957 4.24273 6.35377V13.6883H0.38623Z" fill="#F1F5F9"/>
</svg>
