<svg width="15" height="14" viewBox="0 0 15 14" fill="none" xmlns="http://www.w3.org/2000/svg">
<path d="M7.99341 13.6883C5.96594 13.6883 4.29576 13.0605 2.98289 11.805C1.67002 10.5331 0.982422 9.15836 0.982422 7.13645C0.982422 5.22868 1.60562 3.61441 2.85202 2.29365C4.09842 0.972882 5.67718 0.3125 7.58833 0.3125C9.6989 0.3125 11.3109 0.997341 12.4244 2.36702C13.5378 3.7367 14.0945 5.42435 14.0945 7.42995C14.0945 7.62562 14.0779 7.95173 14.0447 8.40829H4.74654C4.92935 9.23989 5.33443 9.60371 5.89946 10.044C6.46449 10.4842 7.17909 10.7043 8.04326 10.7043C9.22319 10.7043 10.2722 10.528 11.2527 9.63122L13.4526 11.2424C12.1065 12.873 10.2868 13.6883 7.99341 13.6883ZM4.69669 6.08473H10.4052C10.2889 5.23683 9.98141 4.56014 9.48285 4.05467C9.00091 3.54919 8.3694 3.29645 7.58833 3.29645C6.82387 3.29645 6.18406 3.54919 5.66888 4.05467C5.17032 4.54384 4.84625 5.22053 4.69669 6.08473Z" fill="#F1F5F9"/>
</svg>
