<svg width="15" height="18" viewBox="0 0 15 18" fill="none" xmlns="http://www.w3.org/2000/svg">
<path d="M7.24699 17.51C5.09338 17.51 2.81921 16.887 1.07659 15.9813L2.61919 13.3061C4.04945 14.0986 7.05417 15.217 8.98242 14.2615C10.391 13.5636 10.7178 12.4485 10.7178 11.0131C10.7178 10.8221 10.7178 10.4399 10.7178 10.4399C10.126 11.1515 9.65061 11.6471 8.97658 12.0029C8.31898 12.3425 7.51343 12.5124 6.55993 12.5124C4.93239 12.5124 3.54322 11.9625 2.39244 10.8627C1.25809 9.76287 0.690918 8.27491 0.690918 6.39879C0.690918 4.53884 1.26631 3.06705 2.4171 1.98343C3.56788 0.883636 4.94883 0.333739 6.55993 0.333739C8.20391 0.333739 9.51774 0.980677 10.7178 2.27455V0.3125H14.5743V10.6443C14.5743 12.9571 14.0154 14.6634 12.8975 15.7632C11.7138 16.9277 9.86092 17.51 7.24699 17.51ZM5.3516 8.63072C5.95987 9.18062 6.72432 9.45557 7.64495 9.45557C8.56558 9.45557 9.33003 9.17253 9.9383 8.60646C10.563 8.04039 10.8754 7.3045 10.8754 6.39879C10.8754 5.52542 10.563 4.8057 9.9383 4.23963C9.33003 3.67356 8.56558 3.39052 7.64495 3.39052C6.72432 3.39052 5.95987 3.67356 5.3516 4.23963C4.74333 4.8057 4.43919 5.54159 4.43919 6.44731C4.43919 7.33685 4.74333 8.06465 5.3516 8.63072Z" fill="#F1F5F9"/>
</svg>
