<svg width="26" height="26" viewBox="0 0 26 26" fill="none" xmlns="http://www.w3.org/2000/svg">
<path d="M3.69895 3.83933C11.124 13.8773 11.1465 13.9053 11.0608 14.0033C11.0157 14.0547 9.34216 16.0333 7.33929 18.3993L3.70347 22.7067H5.33643H6.97391L9.81581 19.342L12.6577 15.982L12.7479 16.0893C12.7975 16.15 13.9208 17.662 15.2425 19.454L17.6468 22.7067H20.8721C22.645 22.7067 24.093 22.6973 24.093 22.6833C24.093 22.6693 22.266 20.154 20.0286 17.102C17.7957 14.0453 15.9778 11.5207 15.9868 11.488C16.0003 11.46 17.5431 9.626 19.4196 7.40933C21.2917 5.19733 22.8389 3.36333 22.8525 3.33999C22.8705 3.30733 22.3202 3.29333 21.2601 3.29333H19.6452L17.0604 6.35C15.6349 8.03 14.4576 9.40666 14.4395 9.40666C14.4215 9.40666 13.4065 8.03 12.1795 6.35466L9.95113 3.29799H6.62205L3.29297 3.29333L3.69895 3.83933ZM14.5072 12.818C17.5837 17.0273 20.1369 20.5227 20.182 20.5833L20.2677 20.7H19.4151L18.5671 20.6953L13.2892 13.5553C10.3887 9.626 7.80392 6.13066 7.5468 5.78533L7.08217 5.16H7.99789L8.91362 5.16466L14.5072 12.818Z" fill="#5F6874"/>
</svg>
